<svg id="图层_1" xmlns="http://www.w3.org/2000/svg" viewBox="0 0 112 81.4"><style>.st0{fill:#EB5648;}</style><path class="st0" d="M49.6 47.2V34.3c0-1.8 1.4-3.2 3.2-3.2h7.1c1.8 0 3.2 1.4 3.2 3.2v12.9c0 1.8-1.4 3.2-3.2 3.2h-7.1c-1.7.1-3.2-1.4-3.2-3.2zm-36.8 0V34.3c0-1.8 1.4-3.2 3.2-3.2h7.1c1.8 0 3.2 1.4 3.2 3.2v12.9c0 1.8-1.4 3.2-3.2 3.2H16c-1.8.1-3.2-1.4-3.2-3.2zm15.9 34.2h54.8c11.7 0 21.7-5.5 28.7-15.5l-6.7-3.9c-6 8.1-12.9 11.6-21.9 11.6H28.8c-9 0-16-3.5-21.9-11.6L0 65.9c7 10 17 15.5 28.7 15.5zM83.5 0H28.7C17 0 7 5.5 0 15.5l6.7 3.9c6-8.1 12.9-11.6 21.9-11.6h54.8c9 0 16 3.5 21.9 11.6l6.7-3.9C105.2 5.5 95.2 0 83.5 0z"/></svg>